<?xml version="1.0" standalone="no"?>
<!DOCTYPE svg PUBLIC "-//W3C//DTD SVG 20010904//EN"
 "http://www.w3.org/TR/2001/REC-SVG-20010904/DTD/svg10.dtd">
<svg version="1.0" xmlns="http://www.w3.org/2000/svg"
 width="72.000000pt" height="72.000000pt" viewBox="0 0 72.000000 72.000000"
 preserveAspectRatio="xMidYMid meet">
<metadata>
Created by potrace 1.14, written by Peter Selinger 2001-2017
</metadata>
<g transform="translate(0.000000,72.000000) scale(0.100000,-0.100000)"
fill="#000000" stroke="none">
<path d="M1 550 l1 -170 169 0 169 0 0 170 0 170 -170 -1 -171 0 2 -169z"/>
<path d="M380 552 c0 -93 2 -171 4 -173 2 -2 79 -3 169 -1 l165 3 -1 167 -2
167 -167 3 -168 2 0 -168z"/>
<path d="M0 170 l0 -170 170 0 c106 0 170 4 171 10 1 6 1 21 1 35 0 14 0 86
-1 160 l-1 135 -170 0 -170 0 0 -170z"/>
<path d="M380 170 l0 -170 168 3 167 2 0 165 0 165 -167 3 -168 2 0 -170z"/>
</g>
</svg>
